PathFileType	4	(X/Y/Z)	 s10c0401.trc
DataRate	CameraRate	NumFrames	NumMarkers	Units	OrigDataRate	OrigDataStartFrame	OrigNumFrames
200	200	4	50	mm	200	501	2000
Frame#	Time	racr			lacr			c7			jug			rlel			rdr			llel			ldr			s2			lic			ric			lasi			rasi			rpsi			lpsi			rgt			lgt			rth1			rth2			rth3			rth4			rlfc			rmfc			rsh1			rsh2			rsh3			rsh4			rlmal			rmmal			rcal			rtoe			rmt5			lth1			lth2			lth4			lth3			llfc			lmfc			llmal			lmmal			lcal			lmt5			lsh1			lsh2			lsh3			lsh4			ltoe			SBIKE			LBIKE			RBIKE			
		X1	Y1	Z1	X2	Y2	Z2	X3	Y3	Z3	X4	Y4	Z4	X5	Y5	Z5	X6	Y6	Z6	X7	Y7	Z7	X8	Y8	Z8	X9	Y9	Z9	X10	Y10	Z10	X11	Y11	Z11	X12	Y12	Z12	X13	Y13	Z13	X14	Y14	Z14	X15	Y15	Z15	X16	Y16	Z16	X17	Y17	Z17	X18	Y18	Z18	X19	Y19	Z19	X20	Y20	Z20	X21	Y21	Z21	X22	Y22	Z22	X23	Y23	Z23	X24	Y24	Z24	X25	Y25	Z25	X26	Y26	Z26	X27	Y27	Z27	X28	Y28	Z28	X29	Y29	Z29	X30	Y30	Z30	X31	Y31	Z31	X32	Y32	Z32	X33	Y33	Z33	X34	Y34	Z34	X35	Y35	Z35	X36	Y36	Z36	X37	Y37	Z37	X38	Y38	Z38	X39	Y39	Z39	X40	Y40	Z40	X41	Y41	Z41	X42	Y42	Z42	X43	Y43	Z43	X44	Y44	Z44	X45	Y45	Z45	X46	Y46	Z46	X47	Y47	Z47	X48	Y48	Z48	X49	Y49	Z49	X50	Y50	Z50	
501	2.5050	369.870287	1308.288327	-20.361132	383.943072	1297.836842	-361.039380	369.736358	1354.960950	-190.755963	381.255118	1213.658689	-183.524349	447.450322	1062.084194	49.618124	622.985935	912.602022	11.444276	456.099865	1045.745820	-444.044631	643.423907	916.237048	-390.680462	-103.528628	1090.702557	-217.658635	65.561217	1108.812379	-362.287335	65.091897	1117.502384	-66.269978	98.147626	1020.881814	-329.460796	66.643171	1029.143787	-77.706320	-69.000172	1142.965805	-160.125752	-57.366149	1149.335555	-268.997262	-47.995495	1004.616174	-21.466237	-29.239068	974.167094	-407.963797	50.128054	914.537479	13.408150	139.229631	910.016153	13.587329	210.401639	862.349662	16.918936	150.066865	945.536125	4.713049	324.445244	822.672942	9.042801	332.148172	818.480696	-109.146554	272.325664	715.929320	20.996700	273.828836	629.261356	-0.457937	231.901052	555.526617	-17.396856	304.944521	627.448732	-22.229874	206.019373	458.540881	-46.734488	234.170237	482.236473	-122.019979	157.176382	436.699802	-97.585994	398.418850	420.731694	-80.109623	313.667211	393.120208	-22.637648	42.431116	866.147605	-427.072828	116.395337	820.962360	-418.411372	141.939825	845.666867	-407.931594	159.038017	742.938366	-416.018065	228.301003	653.019213	-398.531523	230.147072	647.188443	-278.906573	-30.369969	378.711238	-378.188944	-16.552565	375.966887	-297.677492	-93.935403	376.427670	-334.065822	31.510000	251.684315	-397.486098	133.577083	573.124039	-422.843589	103.218205	492.228776	-405.100200	32.832350	437.795915	-397.943780	127.105262	480.112732	-378.191936	115.783991	235.626047	-339.403404	-205.226247	834.532340	-224.392634	-78.352294	81.629621	-423.649201	-102.756533	80.499338	-24.411336	
502	2.5100	369.881334	1308.228920	-20.293923	383.951058	1297.837349	-360.949856	369.711935	1354.930358	-190.688750	381.225073	1213.630745	-183.471342	447.421364	1062.055332	49.713723	622.971445	912.604133	11.481141	456.127034	1045.772983	-444.047279	643.434013	916.230692	-390.672770	-103.565011	1090.703362	-217.674220	65.564880	1108.801176	-362.238610	65.061367	1117.462755	-66.274081	98.156835	1020.884321	-329.420392	66.583911	1029.132330	-77.684003	-69.081959	1142.964109	-160.128747	-57.426981	1149.332875	-268.999281	-48.048612	1004.654836	-21.445583	-29.245191	974.132332	-407.947135	50.114469	914.671355	13.394653	139.203127	910.215387	13.584324	210.410244	862.666546	16.968444	150.046729	945.774129	4.669828	324.490672	822.955776	9.137300	332.216194	818.780108	-109.080838	272.345965	716.263815	21.029136	273.842193	629.606237	-0.431180	231.841024	555.959045	-17.390254	304.936623	627.751724	-22.203020	205.915099	458.896261	-46.706144	234.150176	482.560781	-122.072121	156.998432	436.888420	-97.586589	398.299328	421.068114	-80.110723	313.543313	393.213989	-22.864643	42.364808	866.077397	-427.047379	116.291559	820.833455	-418.378237	141.847250	845.522839	-407.873680	158.907855	742.791756	-415.944785	228.095857	652.778199	-398.525674	229.889804	646.965111	-278.868345	-30.393241	378.210892	-378.097683	-16.135642	375.296826	-297.799686	-93.942087	376.014055	-334.045670	31.634869	251.318665	-397.502761	133.415237	572.896973	-422.807988	103.121297	492.029565	-405.060300	32.758465	437.391377	-397.897077	127.013982	479.842420	-378.137675	115.905581	235.359501	-339.394471	-205.229032	834.527873	-224.389780	-78.322049	81.685258	-423.701617	-102.734918	80.485085	-24.414629	
503	2.5150	369.860392	1308.185305	-20.212402	383.967309	1297.834461	-360.890309	369.681956	1354.902250	-190.639654	381.186154	1213.583197	-183.420293	447.408806	1062.018686	49.811005	622.967015	912.622919	11.532920	456.145550	1045.803735	-444.073211	643.437429	916.198261	-390.652583	-103.605994	1090.704236	-217.689510	65.572900	1108.791329	-362.201243	65.007019	1117.443776	-66.280515	98.152155	1020.870410	-329.382955	66.517056	1029.088512	-77.688403	-69.142169	1142.968010	-160.156322	-57.430702	1149.340774	-269.030566	-48.106962	1004.681229	-21.438881	-29.240873	974.101412	-407.932990	50.082015	914.826478	13.352363	139.212730	910.432044	13.556856	210.407802	862.878109	17.014176	150.016486	945.975364	4.646852	324.521323	823.220719	9.210181	332.284739	819.151754	-109.027211	272.328655	716.655294	21.075169	273.829939	629.849465	-0.394253	231.824096	556.356611	-17.424533	304.909814	628.057700	-22.178476	205.784615	459.365011	-46.716897	234.049243	482.869110	-122.033446	156.910491	437.384523	-97.663095	398.206983	421.414390	-80.105155	313.198812	393.938196	-22.521518	42.313220	865.981135	-426.995470	116.189243	820.678389	-418.315905	141.788484	845.399285	-407.850941	158.746638	742.622855	-415.874149	227.901807	652.576283	-398.485784	229.672810	646.800403	-278.817999	-30.389164	377.842222	-378.107546	-16.448283	375.133120	-297.681302	-93.941639	375.592213	-334.059370	31.757926	251.034173	-397.479448	133.226144	572.657372	-422.723370	103.010143	491.767210	-404.999218	32.715642	437.077808	-397.869619	126.919288	479.598255	-378.114390	116.025317	235.074187	-339.346697	-205.239647	834.541025	-224.394176	-78.327560	81.692290	-423.715527	-102.744525	80.496905	-24.419305	
504	2.5200	369.839898	1308.159506	-20.123360	383.980322	1297.795154	-360.812220	369.658440	1354.870711	-190.572917	381.158158	1213.536900	-183.356417	447.354771	1061.970211	49.915547	622.942256	912.609988	11.564514	456.163187	1045.807894	-444.097972	643.431880	916.190766	-390.602767	-103.653342	1090.702600	-217.720474	65.563699	1108.799217	-362.181777	64.955563	1117.419512	-66.297379	98.135636	1020.864362	-329.357206	66.448011	1029.077576	-77.646884	-69.206373	1142.985739	-160.141337	-57.492811	1149.356155	-269.036867	-48.178896	1004.720988	-21.433150	-29.248319	974.070321	-407.943328	50.072589	914.969441	13.283506	139.212119	910.644154	13.521093	210.400836	863.135146	17.060757	149.976692	946.190206	4.585686	324.537497	823.523754	9.278591	332.381233	819.421854	-108.971383	272.341947	716.935403	21.146083	273.807697	630.088483	-0.339625	231.742167	556.658618	-17.410235	304.918537	628.329876	-22.165933	205.678010	459.707017	-46.714473	233.889068	483.286810	-121.998760	156.794667	437.740923	-97.613440	398.105565	421.727575	-80.118782	313.070772	394.233900	-22.535268	42.251699	865.887315	-426.969812	116.094351	820.538957	-418.305368	141.715736	845.270163	-407.818960	158.602606	742.449972	-415.792097	227.685594	652.381091	-398.450857	229.445901	646.614694	-278.770482	-30.385275	377.533010	-378.108023	-16.168239	374.559626	-297.750395	-93.945791	375.173911	-334.043750	31.867276	250.768797	-397.499859	133.049492	572.438022	-422.674929	102.909732	491.493444	-404.960998	32.680617	436.771300	-397.830660	126.839043	479.382284	-378.101493	116.143712	234.803841	-339.321769	-205.222472	834.529140	-224.375892	-78.324413	81.672964	-423.726431	-102.750019	80.482393	-24.415768	
